<svg width="30" height="30" viewBox="0 0 30 30" fill="none" xmlns="http://www.w3.org/2000/svg">
<path fill-rule="evenodd" clip-rule="evenodd" d="M8.74952 2.5C5.29775 2.5 2.49951 5.29822 2.49951 8.74999V21.2501C2.49951 24.7017 5.29775 27.5 8.74952 27.5H21.2495C24.7013 27.5 27.4996 24.7017 27.4996 21.2501V8.74999C27.4996 5.29822 24.7013 2.5 21.2495 2.5H8.74952ZM19.6615 13.3549C20.1337 12.8512 20.1082 12.0603 19.6045 11.5881C19.1008 11.1159 18.3098 11.1414 17.8376 11.6451L13.9826 15.7571L12.08 14.0658C11.564 13.6071 10.7739 13.6536 10.3153 14.1695C9.85662 14.6855 9.90309 15.4757 10.4191 15.9342L13.2315 18.4343C13.7379 18.8844 14.5106 18.8492 14.9739 18.3549L19.6615 13.3549Z" fill="#607E92"/>
</svg>
