<svg width="255" height="46" viewBox="0 0 255 46" fill="none" xmlns="http://www.w3.org/2000/svg">
<path d="M51.9858 4.74768H66.717V8.77405H57.6605V13.4363H59.6557C63.2184 13.4363 65.6864 14.0842 67.0667 15.3734C68.4401 16.6623 69.1266 18.5286 69.1266 20.9832C69.1266 22.8612 68.6665 24.3918 67.753 25.5869C66.8335 26.7756 65.7583 27.5296 64.5338 27.8411C63.3028 28.1533 61.6118 28.3064 59.4486 28.3064H51.9858V4.74768ZM57.6605 17.4632V24.28H59.4421C60.7184 24.28 61.6577 24.0325 62.2471 23.5322C62.8428 23.0318 63.141 22.1727 63.141 20.9481C63.141 19.8942 62.914 19.0466 62.454 18.4107C61.9939 17.7809 60.99 17.4632 59.4421 17.4632H57.6605ZM72.2617 10.8934H77.2371V13.478C78.2796 11.5879 79.7244 10.646 81.5707 10.646C83.3131 10.646 84.7644 11.3586 85.9176 12.7774C87.0767 14.2016 87.6534 16.3742 87.6534 19.2995C87.6534 22.3609 87.0834 24.6684 85.9495 26.2227C84.8164 27.7764 83.2159 28.5539 81.1625 28.5539C79.6858 28.5539 78.4681 28.0413 77.5087 27.017V34.2047H72.2617V10.8934ZM77.5087 21.1599C77.5087 22.8262 77.6578 23.9091 77.9495 24.4094C78.2478 24.9098 78.8502 25.1627 79.7571 25.1627C80.5601 25.1627 81.156 24.8275 81.5514 24.162C81.9402 23.4971 82.1346 21.8781 82.1346 19.3115C82.1346 17.1747 81.9661 15.7208 81.6226 14.961C81.2857 14.2016 80.7092 13.8252 79.9062 13.8252C79.2385 13.8252 78.6752 14.0666 78.2084 14.5434C77.7424 15.0202 77.5087 16.1267 77.5087 17.8631V21.1599ZM97.9536 20.9597H96.166V28.3064H90.8017V11.0701H96.166V17.2865H98.0509C98.6919 12.7889 101.231 10.5401 105.669 10.5401C110.864 10.5401 113.462 13.5542 113.462 19.5881C113.462 25.6339 110.864 28.6597 105.669 28.6597C100.953 28.6597 98.381 26.0932 97.9536 20.9597ZM107.942 19.6002C107.942 17.3803 107.781 15.8853 107.45 15.1024C107.12 14.3195 106.53 13.9311 105.669 13.9311C104.872 13.9311 104.296 14.2959 103.933 15.0318C103.577 15.7674 103.395 17.2921 103.395 19.6002C103.395 22.0371 103.583 23.5908 103.965 24.2624C104.341 24.9334 104.918 25.2686 105.688 25.2686C106.556 25.2686 107.152 24.8566 107.47 24.0385C107.787 23.2146 107.942 21.737 107.942 19.6002ZM124.494 28.3064V22.5314C123.503 22.9671 122.453 23.1849 121.359 23.1849C119.661 23.1849 118.32 22.7377 117.335 21.8485C116.357 20.9536 115.865 19.6764 115.865 18.0047V10.8934H121.229V17.4688C121.229 18.7815 121.715 19.4411 122.686 19.4411C123.405 19.4411 124.008 19.2644 124.494 18.905V10.8934H129.857V28.3064H124.494ZM133.828 28.3064V10.8934H139.192V17.145H143.429V10.8934H148.792V28.3064H143.429V20.8889H139.192V28.3064H133.828ZM158.075 26.2227V28.3064H152.711V10.8934H158.075L158.055 19.2529L162.35 13.1361V10.8934H167.715V28.3064H162.35V20.1888L161.483 21.4956L158.075 26.2227ZM171.653 10.8934H177.017V17.6102L182.387 10.8934H187.239L182.406 16.739L187.705 28.3064H181.895L178.934 20.2711L177.017 22.6669V28.3064H171.653V10.8934ZM204.263 19.5881C204.263 25.6339 201.678 28.6597 196.502 28.6597C191.313 28.6597 188.715 25.6339 188.715 19.5881C188.715 13.5542 191.313 10.5401 196.502 10.5401C201.678 10.5401 204.263 13.5542 204.263 19.5881ZM198.744 19.6002C198.744 17.3803 198.575 15.8853 198.245 15.1024C197.908 14.3195 197.331 13.9311 196.502 13.9311C195.692 13.9311 195.116 14.302 194.766 15.0438C194.41 15.7855 194.235 17.3041 194.235 19.6002C194.235 21.725 194.384 23.2024 194.688 24.0265C194.986 24.8566 195.595 25.2686 196.502 25.2686C197.364 25.2686 197.96 24.8566 198.271 24.0385C198.588 23.2146 198.744 21.737 198.744 19.6002Z" fill="#C1221C"/>
<path d="M215.612 26.1519C212.405 25.6805 210.125 24.5625 208.777 22.8024C207.424 21.0364 206.75 18.9407 206.75 16.5091C206.75 13.9425 207.495 11.8003 208.985 10.0868C210.475 8.37999 212.684 7.30251 215.612 6.86685V4.04144H220.47V6.88446C222.588 7.14939 224.325 7.79136 225.678 8.80363C227.039 9.8164 227.984 10.9937 228.522 12.3357C229.06 13.6776 229.332 15.0673 229.332 16.5091C229.332 21.9488 226.378 25.1511 220.47 26.1166V29.013H215.612V26.1519ZM215.612 10.8934C213.383 11.6526 212.269 13.5777 212.269 16.6743C212.269 19.5469 213.383 21.3777 215.612 22.1606V10.8934ZM220.47 22.1606C222.699 21.3892 223.813 19.4585 223.813 16.3621C223.813 13.5009 222.699 11.6761 220.47 10.8934V22.1606ZM240.85 26.1519C237.643 25.6805 235.363 24.5625 234.015 22.8024C232.662 21.0364 231.988 18.9407 231.988 16.5091C231.988 13.9425 232.733 11.8003 234.223 10.0868C235.713 8.37999 237.921 7.30251 240.85 6.86685V4.04144H245.708V6.88446C247.826 7.14939 249.563 7.79136 250.916 8.80363C252.277 9.8164 253.223 10.9937 253.76 12.3357C254.298 13.6776 254.57 15.0673 254.57 16.5091C254.57 21.9488 251.616 25.1511 245.708 26.1166V29.013H240.85V26.1519ZM240.85 10.8934C238.621 11.6526 237.507 13.5777 237.507 16.6743C237.507 19.5469 238.621 21.3777 240.85 22.1606V10.8934ZM245.708 22.1606C247.937 21.3892 249.051 19.4585 249.051 16.3621C249.051 13.5009 247.937 11.6761 245.708 10.8934V22.1606Z" fill="#26335F"/>
<path d="M111.864 43.116C110.772 43.0112 109.961 42.6431 109.433 42.0117C108.905 41.3801 108.642 40.6011 108.642 39.6761C108.642 38.6161 108.934 37.7839 109.521 37.1777C110.105 36.5698 110.887 36.2252 111.864 36.1419V35.0757H113.165V36.1419C114.202 36.2421 114.998 36.6021 115.554 37.2205C116.11 37.8415 116.388 38.6419 116.388 39.6245C116.388 41.6562 115.313 42.8186 113.165 43.116V44.1826H111.864V43.116ZM111.864 37.1694C110.734 37.4113 110.168 38.2481 110.168 39.6761C110.168 41.029 110.734 41.8338 111.864 42.0884V37.1694ZM113.165 42.0884C114.296 41.8426 114.861 41.0055 114.861 39.5817C114.861 38.2288 114.296 37.424 113.165 37.1694V42.0884ZM119.214 41.4421L116.472 35.3453H118.06L119.869 39.7144L121.431 35.3453H122.832L120.432 41.8235C120.133 42.6304 119.822 43.1807 119.499 43.4737C119.176 43.7672 118.698 43.9125 118.062 43.9125H117.419V42.6925H118.062C118.191 42.6925 118.352 42.6518 118.543 42.5723C118.734 42.4933 118.92 42.2213 119.099 41.7571L119.214 41.4421ZM123.544 35.3453H125.876C126.62 35.3453 127.226 35.4093 127.69 35.5378C128.154 35.6645 128.545 35.9471 128.863 36.3859C129.181 36.8227 129.339 37.3487 129.339 37.9655C129.339 38.5306 129.21 39.0167 128.952 39.4237C128.693 39.8302 128.348 40.1233 127.914 40.3032C127.478 40.4832 126.809 40.5731 125.907 40.5731H125.099V43.9125H123.544V35.3453ZM125.099 36.4369V39.4429H125.872C126.562 39.4429 127.037 39.3249 127.304 39.0896C127.568 38.8543 127.699 38.4707 127.699 37.9397C127.699 37.5442 127.612 37.2226 127.438 36.9768C127.264 36.7305 127.071 36.5785 126.861 36.5225C126.651 36.4649 126.321 36.4369 125.872 36.4369H125.099ZM130.528 35.3453H132.084V38.903H134.868V35.3453H136.422V43.9125H134.868V40.0979H132.084V43.9125H130.528V35.3453ZM139.787 43.1527V43.9125H138.232V35.3453H139.787V40.1534C139.787 40.211 139.77 40.6072 139.738 41.3395C139.928 40.8446 140.199 40.3141 140.553 39.7447L142.77 36.1802V35.3453H144.324V43.9125H142.77V39.4681C142.77 39.4276 142.786 38.9355 142.819 37.9935C142.621 38.4838 142.343 39.0167 141.99 39.5949L139.787 43.1527ZM144.998 35.3453H150.737V36.5527H148.645V43.9125H147.09V36.5527H144.998V35.3453ZM153.877 41.4421L151.135 35.3453H152.723L154.532 39.7144L156.094 35.3453H157.495L155.095 41.8235C154.796 42.6304 154.485 43.1807 154.162 43.4737C153.839 43.7672 153.361 43.9125 152.725 43.9125H152.082V42.6925H152.725C152.854 42.6925 153.015 42.6518 153.206 42.5723C153.396 42.4933 153.582 42.2213 153.762 41.7571L153.877 41.4421ZM158.206 35.3453H160.539C161.283 35.3453 161.889 35.4093 162.353 35.5378C162.817 35.6645 163.208 35.9471 163.526 36.3859C163.844 36.8227 164.002 37.3487 164.002 37.9655C164.002 38.5306 163.873 39.0167 163.615 39.4237C163.356 39.8302 163.01 40.1233 162.577 40.3032C162.141 40.4832 161.472 40.5731 160.57 40.5731H159.762V43.9125H158.206V35.3453ZM159.762 36.4369V39.4429H160.534C161.225 39.4429 161.7 39.3249 161.966 39.0896C162.23 38.8543 162.362 38.4707 162.362 37.9397C162.362 37.5442 162.275 37.2226 162.101 36.9768C161.927 36.7305 161.733 36.5785 161.523 36.5225C161.314 36.4649 160.984 36.4369 160.534 36.4369H159.762ZM166.574 35.3453H168.346L170.861 43.9125H169.283L168.692 41.7675H165.935L165.352 43.9125H163.865L166.574 35.3453ZM168.385 40.6498L167.307 36.726L166.24 40.6498H168.385ZM174.221 42.7182L176.263 35.3453H178.562L180.411 42.7182H180.948V45.7369H179.86L179.681 43.9125H174.944L174.772 45.7369H173.683V42.7182H174.221ZM175.622 42.7182H178.791L177.467 36.7968H177.088L175.622 42.7182ZM182.301 43.9125H180.866L183.417 35.3453H185.337L187.763 43.9125H186.115L184.235 36.7926L182.301 43.9125ZM194.089 35.3453H191.252C190.228 35.3453 189.472 35.557 188.984 35.9789C188.496 36.4007 188.251 37.0064 188.251 37.7964C188.251 38.8499 188.734 39.5949 189.7 40.0339L187.912 43.9125H189.599L191.062 40.3289H192.534V43.9125H194.089V35.3453ZM192.534 36.4369V39.2371H191.335C190.8 39.2371 190.407 39.1023 190.155 38.8346C189.903 38.5652 189.778 38.2161 189.778 37.7839C189.778 36.8869 190.294 36.4369 191.323 36.4369H192.534ZM204.992 39.6245C204.992 41.0888 204.704 42.1959 204.129 42.9449C203.554 43.6921 202.718 44.0668 201.623 44.0668C200.525 44.0668 199.682 43.6942 199.097 42.947C198.513 42.1998 198.221 41.0932 198.221 39.6245C198.221 38.1712 198.511 37.0685 199.09 36.3174C199.67 35.5657 200.513 35.191 201.616 35.191C202.707 35.191 203.543 35.5636 204.122 36.3108C204.702 37.058 204.992 38.1624 204.992 39.6245ZM203.352 39.6288C203.352 38.6101 203.222 37.8091 202.963 37.2248C202.704 36.6406 202.249 36.347 201.604 36.347C200.956 36.347 200.504 36.6406 200.247 37.2271C199.99 37.8136 199.86 38.6144 199.86 39.6288C199.86 40.6263 199.988 41.4229 200.24 42.0182C200.492 42.613 200.954 42.9108 201.623 42.9108C202.252 42.9108 202.697 42.6217 202.958 42.0456C203.22 41.4701 203.352 40.6653 203.352 39.6288ZM206.132 42.7182L208.174 35.3453H210.473L212.322 42.7182H212.859V45.7369H211.771L211.592 43.9125H206.855L206.683 45.7369H205.594V42.7182H206.132ZM207.533 42.7182H210.702L209.378 36.7968H208.999L207.533 42.7182ZM213.908 35.3453H219.307V36.4754H215.463V38.9289H218.473V40.0722H215.463V42.7567H219.364V43.9125H213.908V35.3453ZM226.448 38.9931L229.286 43.9125H227.643L225.272 39.8384L224.947 39.9845V43.9125H223.506V39.9845L223.176 39.8384L220.808 43.9125H219.364L222.024 39.4556L219.562 35.3453H221.174L223.347 38.9974L223.506 39.0682V35.3453H224.947V39.0682L225.105 38.9974L227.272 35.3453H228.735L226.448 38.9931ZM229.612 42.7182L231.654 35.3453H233.953L235.803 42.7182H236.34V45.7369H235.251L235.073 43.9125H230.335L230.163 45.7369H229.075V42.7182H229.612ZM231.013 42.7182H234.182L232.858 36.7968H232.479L231.013 42.7182ZM237.388 43.9125V35.3453H238.943V38.672H240.258C240.969 38.672 241.518 38.745 241.909 38.8882C242.298 39.0315 242.616 39.3162 242.859 39.7403C243.104 40.1644 243.226 40.6735 243.226 41.2666C243.226 42.0566 243.009 42.6946 242.574 43.1823C242.138 43.6685 241.464 43.9125 240.557 43.9125H237.388ZM238.943 42.7182H240.456C240.814 42.7182 241.111 42.6047 241.346 42.3798C241.582 42.1531 241.699 41.7806 241.699 41.2561C241.699 40.7272 241.574 40.3503 241.327 40.132C241.08 39.9114 240.79 39.8022 240.456 39.8022H238.943V42.7182ZM243.989 35.3453H245.544V43.9125H243.989V35.3453Z" fill="#2B2A29"/>
<path fill-rule="evenodd" clip-rule="evenodd" d="M46.2401 20.89H20.8809V43.9347H46.2401V20.89Z" fill="#26335F"/>
<path fill-rule="evenodd" clip-rule="evenodd" d="M18.2699 36.7835V18.5173H39.4692V0.916687H0V36.7835H18.2699Z" fill="#C1221C"/>
<path fill-rule="evenodd" clip-rule="evenodd" d="M3.69678 32.8429H6.41242V33.6872H3.69678V32.8429Z" fill="#FEFEFE"/>
<path fill-rule="evenodd" clip-rule="evenodd" d="M7.92236 32.8426C8.82794 32.8426 9.73352 32.8426 10.6384 32.8426C10.6384 33.1236 10.6384 33.4055 10.6384 33.6874C9.73352 33.6874 8.82794 33.6874 7.92236 33.6874C7.92236 33.4055 7.92236 33.1236 7.92236 32.8426Z" fill="#FEFEFE"/>
<path fill-rule="evenodd" clip-rule="evenodd" d="M12.1484 32.8426C13.054 32.8426 13.9596 32.8426 14.8644 32.8426C14.8644 33.1236 14.8644 33.4055 14.8644 33.6874C13.9596 33.6874 13.054 33.6874 12.1484 33.6874C12.1484 33.4055 12.1484 33.1236 12.1484 32.8426Z" fill="#FEFEFE"/>
<path fill-rule="evenodd" clip-rule="evenodd" d="M16.3745 32.8426C17.2801 32.8426 18.1857 32.8426 19.0905 32.8426C19.0905 33.1236 19.0905 33.4055 19.0905 33.6874C18.1857 33.6874 17.2801 33.6874 16.3745 33.6874C16.3745 33.4055 16.3745 33.1236 16.3745 32.8426Z" fill="#FEFEFE"/>
<path fill-rule="evenodd" clip-rule="evenodd" d="M20.6011 32.8426C21.5067 32.8426 22.4122 32.8426 23.3171 32.8426C23.3171 33.1236 23.3171 33.4055 23.3171 33.6874C22.4122 33.6874 21.5067 33.6874 20.6011 33.6874C20.6011 33.4055 20.6011 33.1236 20.6011 32.8426Z" fill="#FEFEFE"/>
<path fill-rule="evenodd" clip-rule="evenodd" d="M24.8271 32.8426C25.7327 32.8426 26.6383 32.8426 27.5432 32.8426C27.5432 33.1236 27.5432 33.4055 27.5432 33.6874C26.6383 33.6874 25.7327 33.6874 24.8271 33.6874C24.8271 33.4055 24.8271 33.1236 24.8271 32.8426Z" fill="#FEFEFE"/>
<path fill-rule="evenodd" clip-rule="evenodd" d="M29.0532 32.8426C29.9588 32.8426 30.8644 32.8426 31.7692 32.8426C31.7692 33.1236 31.7692 33.4055 31.7692 33.6874C30.8644 33.6874 29.9588 33.6874 29.0532 33.6874C29.0532 33.4055 29.0532 33.1236 29.0532 32.8426Z" fill="#FEFEFE"/>
<path fill-rule="evenodd" clip-rule="evenodd" d="M33.2798 32.8429H35.9954V33.6872H33.2798V32.8429Z" fill="#FEFEFE"/>
<path fill-rule="evenodd" clip-rule="evenodd" d="M3.69678 4.15131H6.41242V4.99613H3.69678V4.15131Z" fill="#FEFEFE"/>
<path fill-rule="evenodd" clip-rule="evenodd" d="M7.92285 4.24493C8.82843 4.24493 9.73346 4.24493 10.6385 4.24493C10.6385 4.46392 10.6385 4.68274 10.6385 4.90222C9.73346 4.90222 8.82843 4.90222 7.92285 4.90222C7.92285 4.68274 7.92285 4.46392 7.92285 4.24493Z" fill="#FEFEFE"/>
<path fill-rule="evenodd" clip-rule="evenodd" d="M12.1489 4.22913C13.0545 4.22913 13.9595 4.22913 14.8644 4.22913C14.8644 4.45832 14.8644 4.68834 14.8644 4.91819C13.9595 4.91819 13.0545 4.91819 12.1489 4.91819C12.1489 4.68834 12.1489 4.45832 12.1489 4.22913Z" fill="#FEFEFE"/>
<path fill-rule="evenodd" clip-rule="evenodd" d="M16.3745 4.21368C17.2801 4.21368 18.1851 4.21368 19.0902 4.21368C19.0902 4.45358 19.0902 4.69331 19.0902 4.93354C18.1851 4.93354 17.2801 4.93354 16.3745 4.93354C16.3745 4.69331 16.3745 4.45358 16.3745 4.21368Z" fill="#FEFEFE"/>
<path fill-rule="evenodd" clip-rule="evenodd" d="M20.6011 4.19794C21.5067 4.19794 22.4117 4.19794 23.3167 4.19794C23.3167 4.44804 23.3167 4.6988 23.3167 4.94957C22.4117 4.94957 21.5067 4.94957 20.6011 4.94957C20.6011 4.6988 20.6011 4.44804 20.6011 4.19794Z" fill="#FEFEFE"/>
<path fill-rule="evenodd" clip-rule="evenodd" d="M24.8271 4.18243C25.7327 4.18243 26.6376 4.18243 27.5426 4.18243C27.5426 4.44308 27.5426 4.70372 27.5426 4.96485C26.6376 4.96485 25.7327 4.96485 24.8271 4.96485C24.8271 4.70372 24.8271 4.44308 24.8271 4.18243Z" fill="#FEFEFE"/>
<path fill-rule="evenodd" clip-rule="evenodd" d="M29.0537 4.16681C29.9593 4.16681 30.8643 4.16681 31.7694 4.16681C31.7694 4.43782 31.7694 4.70933 31.7694 4.98101C30.8643 4.98101 29.9593 4.98101 29.0537 4.98101C29.0537 4.70933 29.0537 4.43782 29.0537 4.16681Z" fill="#FEFEFE"/>
<path fill-rule="evenodd" clip-rule="evenodd" d="M33.2798 4.15131H35.9954V4.99613H33.2798V4.15131Z" fill="#FEFEFE"/>
<path fill-rule="evenodd" clip-rule="evenodd" d="M3.55957 31.5942C3.55957 30.7713 3.55957 29.9484 3.55957 29.1263C3.86868 29.1263 4.17905 29.1263 4.48924 29.1263C4.48924 29.9484 4.48924 30.7713 4.48924 31.5942C4.17905 31.5942 3.86868 31.5942 3.55957 31.5942Z" fill="#FEFEFE"/>
<path fill-rule="evenodd" clip-rule="evenodd" d="M3.55957 27.754C3.55957 26.931 3.55957 26.1081 3.55957 25.286C3.86868 25.286 4.17905 25.286 4.48924 25.286C4.48924 26.1081 4.48924 26.931 4.48924 27.754C4.17905 27.754 3.86868 27.754 3.55957 27.754Z" fill="#FEFEFE"/>
<path fill-rule="evenodd" clip-rule="evenodd" d="M3.55957 23.9136C3.55957 23.0907 3.55957 22.2678 3.55957 21.4457C3.86868 21.4457 4.17905 21.4457 4.48924 21.4457C4.48924 22.2678 4.48924 23.0907 4.48924 23.9136C4.17905 23.9136 3.86868 23.9136 3.55957 23.9136Z" fill="#FEFEFE"/>
<path fill-rule="evenodd" clip-rule="evenodd" d="M3.55957 20.0726C3.55957 19.2497 3.55957 18.4268 3.55957 17.6045C3.86868 17.6045 4.17905 17.6045 4.48924 17.6045C4.48924 18.4268 4.48924 19.2497 4.48924 20.0726C4.17905 20.0726 3.86868 20.0726 3.55957 20.0726Z" fill="#FEFEFE"/>
<path fill-rule="evenodd" clip-rule="evenodd" d="M3.55957 16.2323C3.55957 15.4094 3.55957 14.5865 3.55957 13.7642C3.86868 13.7642 4.17905 13.7642 4.48924 13.7642C4.48924 14.5865 4.48924 15.4094 4.48924 16.2323C4.17905 16.2323 3.86868 16.2323 3.55957 16.2323Z" fill="#FEFEFE"/>
<path fill-rule="evenodd" clip-rule="evenodd" d="M3.55957 12.392C3.55957 11.5691 3.55957 10.7462 3.55957 9.92389C3.86868 9.92389 4.17905 9.92389 4.48924 9.92389C4.48924 10.7462 4.48924 11.5691 4.48924 12.392C4.17905 12.392 3.86868 12.392 3.55957 12.392Z" fill="#FEFEFE"/>
<path fill-rule="evenodd" clip-rule="evenodd" d="M3.56006 8.55171V6.08344H4.48973V8.55171H3.56006Z" fill="#FEFEFE"/>
<path fill-rule="evenodd" clip-rule="evenodd" d="M35.2012 31.5942C35.2012 30.7713 35.2012 29.9484 35.2012 29.1263C35.5103 29.1263 35.8207 29.1263 36.1308 29.1263C36.1308 29.9484 36.1308 30.7713 36.1308 31.5942C35.8207 31.5942 35.5103 31.5942 35.2012 31.5942Z" fill="#FEFEFE"/>
<path fill-rule="evenodd" clip-rule="evenodd" d="M35.2012 27.754C35.2012 26.931 35.2012 26.1081 35.2012 25.286C35.5103 25.286 35.8207 25.286 36.1308 25.286C36.1308 26.1081 36.1308 26.931 36.1308 27.754C35.8207 27.754 35.5103 27.754 35.2012 27.754Z" fill="#FEFEFE"/>
<path fill-rule="evenodd" clip-rule="evenodd" d="M35.2012 23.9136C35.2012 23.0907 35.2012 22.2678 35.2012 21.4457C35.5103 21.4457 35.8207 21.4457 36.1308 21.4457C36.1308 22.2678 36.1308 23.0907 36.1308 23.9136C35.8207 23.9136 35.5103 23.9136 35.2012 23.9136Z" fill="#FEFEFE"/>
<path fill-rule="evenodd" clip-rule="evenodd" d="M35.2012 20.0726C35.2012 19.2497 35.2012 18.4268 35.2012 17.6045C35.5103 17.6045 35.8207 17.6045 36.1308 17.6045C36.1308 18.4268 36.1308 19.2497 36.1308 20.0726C35.8207 20.0726 35.5103 20.0726 35.2012 20.0726Z" fill="#FEFEFE"/>
<path fill-rule="evenodd" clip-rule="evenodd" d="M35.2012 16.2323C35.2012 15.4094 35.2012 14.5865 35.2012 13.7642C35.5103 13.7642 35.8207 13.7642 36.1308 13.7642C36.1308 14.5865 36.1308 15.4094 36.1308 16.2323C35.8207 16.2323 35.5103 16.2323 35.2012 16.2323Z" fill="#FEFEFE"/>
<path fill-rule="evenodd" clip-rule="evenodd" d="M35.2012 12.392C35.2012 11.5691 35.2012 10.7462 35.2012 9.92389C35.5103 9.92389 35.8207 9.92389 36.1308 9.92389C36.1308 10.7462 36.1308 11.5691 36.1308 12.392C35.8207 12.392 35.5103 12.392 35.2012 12.392Z" fill="#FEFEFE"/>
<path fill-rule="evenodd" clip-rule="evenodd" d="M35.2017 8.55171V6.08344H36.1313V8.55171H35.2017Z" fill="#FEFEFE"/>
<path fill-rule="evenodd" clip-rule="evenodd" d="M242.976 22.9594C242.976 22.3538 242.976 21.7484 242.976 21.1433C243.165 21.1433 243.354 21.1433 243.543 21.1433C243.543 21.7484 243.543 22.3538 243.543 22.9594C243.354 22.9594 243.165 22.9594 242.976 22.9594Z" fill="#FEFEFE"/>
<path fill-rule="evenodd" clip-rule="evenodd" d="M242.976 20.2106C242.976 19.605 242.976 18.9996 242.976 18.3945C243.165 18.3945 243.354 18.3945 243.543 18.3945C243.543 18.9996 243.543 19.605 243.543 20.2106C243.354 20.2106 243.165 20.2106 242.976 20.2106Z" fill="#FEFEFE"/>
<path fill-rule="evenodd" clip-rule="evenodd" d="M242.976 17.4617C242.976 16.8561 242.976 16.2507 242.976 15.6456C243.165 15.6456 243.354 15.6456 243.543 15.6456C243.543 16.2507 243.543 16.8561 243.543 17.4617C243.354 17.4617 243.165 17.4617 242.976 17.4617Z" fill="#FEFEFE"/>
<path fill-rule="evenodd" clip-rule="evenodd" d="M242.976 14.7129C242.976 14.1075 242.976 13.5019 242.976 12.897C243.165 12.897 243.354 12.897 243.543 12.897C243.543 13.5019 243.543 14.1075 243.543 14.7129C243.354 14.7129 243.165 14.7129 242.976 14.7129Z" fill="#FEFEFE"/>
<path fill-rule="evenodd" clip-rule="evenodd" d="M242.976 11.964C242.976 11.3586 242.976 10.753 242.976 10.1481C243.165 10.1481 243.354 10.1481 243.543 10.1481C243.543 10.753 243.543 11.3586 243.543 11.964C243.354 11.964 243.165 11.964 242.976 11.964Z" fill="#FEFEFE"/>
<path fill-rule="evenodd" clip-rule="evenodd" d="M242.976 9.21522C242.976 8.6098 242.976 8.00422 242.976 7.39929C243.165 7.39929 243.354 7.39929 243.543 7.39929C243.543 8.00422 243.543 8.6098 243.543 9.21522C243.354 9.21522 243.165 9.21522 242.976 9.21522Z" fill="#FEFEFE"/>
<path fill-rule="evenodd" clip-rule="evenodd" d="M242.976 6.46632V4.65039H243.543V6.46632H242.976Z" fill="#FEFEFE"/>
<path fill-rule="evenodd" clip-rule="evenodd" d="M242.976 25.7082V23.8922H243.543V25.7082H242.976Z" fill="#FEFEFE"/>
<path fill-rule="evenodd" clip-rule="evenodd" d="M242.976 28.4571V26.641H243.543V28.4571H242.976Z" fill="#FEFEFE"/>
<path d="M244.564 24.5981C245.159 24.5288 245.693 24.4198 246.265 24.2463L246.09 23.7337C245.583 23.8984 245.031 24.0003 244.5 24.062L244.564 24.5981ZM247.344 23.833C247.801 23.6501 248.43 23.2528 248.826 22.9597L248.486 22.5309C248.102 22.809 247.539 23.1708 247.099 23.3471L247.344 23.833ZM249.702 22.2234C250.097 21.8476 250.498 21.3756 250.798 20.9264L250.327 20.6315C250.045 21.0545 249.672 21.4913 249.301 21.8445L249.702 22.2234ZM251.369 19.9553C251.616 19.4635 251.825 18.9127 251.958 18.3819L251.412 18.2558C251.267 18.7738 251.104 19.2394 250.861 19.7243L251.369 19.9553ZM252.161 17.2842C252.227 16.6842 252.206 16.209 252.17 15.6133L251.611 15.6686C251.657 16.2047 251.661 16.6942 251.601 17.23L252.161 17.2842ZM251.98 14.5141C251.846 13.9617 251.658 13.4506 251.415 12.9343L250.905 13.1618C251.131 13.6065 251.316 14.1575 251.433 14.6389L251.98 14.5141ZM250.857 11.9564C250.556 11.4933 250.172 11.0382 249.775 10.6473L249.373 11.0242C249.741 11.3846 250.105 11.8186 250.384 12.2477L250.857 11.9564ZM248.909 9.90207C248.474 9.57754 247.936 9.23556 247.437 9.01181L247.189 9.49588C247.685 9.73857 248.125 10.0009 248.566 10.3297L248.909 9.90207ZM246.365 8.58355C245.788 8.40984 245.275 8.2829 244.673 8.2121L244.601 8.74705C245.17 8.81735 245.641 8.9308 246.186 9.09512L246.365 8.58355Z" fill="#FEFEFE"/>
</svg>
