<svg width="15" height="12" viewBox="0 0 15 12" fill="none" xmlns="http://www.w3.org/2000/svg">
<path fill-rule="evenodd" clip-rule="evenodd" d="M2.97602 3.1202e-07H12.024C12.353 -6.89952e-06 12.6368 -1.4178e-05 12.8718 0.0153969C13.1191 0.0316301 13.3666 0.0673274 13.6111 0.164683C14.1623 0.38426 14.6004 0.805436 14.8287 1.33554C14.93 1.57059 14.9671 1.8085 14.984 2.04636C15 2.27227 15 2.54521 15 2.86155V8.67692C15 8.99322 15 9.26618 14.984 9.49212C14.9671 9.72995 14.93 9.96786 14.8287 10.203C14.6004 10.733 14.1623 11.1542 13.6111 11.3738C13.3666 11.4711 13.1191 11.5068 12.8718 11.5231C12.6368 11.5385 12.353 11.5385 12.024 11.5385H2.97601C2.64702 11.5385 2.36316 11.5385 2.12822 11.5231C1.88084 11.5068 1.63341 11.4711 1.38896 11.3738C0.837653 11.1542 0.39963 10.733 0.17127 10.203C0.0700203 9.96786 0.0328953 9.72995 0.0160128 9.49212C-1.47452e-05 9.26618 -7.1755e-06 8.99322 3.24501e-07 8.67692V2.86155C-7.1755e-06 2.54522 -1.47452e-05 2.27227 0.0160128 2.04636C0.0328953 1.8085 0.0700203 1.57059 0.17127 1.33554C0.39963 0.805436 0.837653 0.38426 1.38896 0.164683C1.63341 0.0673274 1.88084 0.0316301 2.12822 0.0153969C2.36316 -1.4178e-05 2.64703 -6.89952e-06 2.97602 3.1202e-07ZM1.73809 1.64262C2.01086 1.34289 2.48468 1.31251 2.79641 1.57478L7.00613 5.11659C7.28888 5.3545 7.71112 5.3545 7.99387 5.11659L12.2036 1.57478C12.5153 1.31251 12.9892 1.34289 13.2619 1.64262C13.5347 1.94236 13.5031 2.39796 13.1914 2.66023L8.98162 6.20207C8.1333 6.91579 6.8667 6.91579 6.01837 6.20207L1.80865 2.66023C1.49692 2.39796 1.46533 1.94236 1.73809 1.64262Z" fill="#607E92"/>
</svg>
