<svg width="15" height="13" viewBox="0 0 15 13" fill="none" xmlns="http://www.w3.org/2000/svg">
<path d="M13.7212 0.110354C13.7212 0.110354 15.1088 -0.430718 14.9932 0.883314C14.9546 1.42439 14.6077 3.31814 14.3379 5.3665L13.4128 11.4342C13.4128 11.4342 13.3358 12.3231 12.6419 12.4777C11.9481 12.6323 10.9074 11.9367 10.7147 11.7821C10.5605 11.6661 7.82386 9.92696 6.86022 9.07671C6.5904 8.84482 6.28204 8.38103 6.89875 7.83996L10.946 3.97518C11.4085 3.51139 11.871 2.42925 9.94379 3.74328L4.54754 7.41485C4.54754 7.41485 3.93082 7.80132 2.7745 7.4535L0.269079 6.68053C0.269079 6.68053 -0.655997 6.10082 0.92434 5.52107C4.77882 3.7046 9.51983 1.8495 13.7212 0.110354Z" fill="#607E92"/>
</svg>
