<svg width="12" height="12" viewBox="0 0 12 12" fill="none" xmlns="http://www.w3.org/2000/svg">
<path d="M8.37079 7.27079L8.06712 7.57266C8.06712 7.57266 7.34539 8.29032 5.37539 6.33146C3.40541 4.37267 4.12713 3.65504 4.12713 3.65504L4.31833 3.46491C4.78939 2.99656 4.83379 2.2446 4.42279 1.69565L3.58217 0.572717C3.07352 -0.106722 2.09064 -0.196475 1.50763 0.383217L0.461232 1.42368C0.172152 1.71112 -0.0215678 2.08372 0.00192546 2.49707C0.0620254 3.55454 0.540471 5.82979 3.21024 8.48439C6.04139 11.2995 8.69786 11.4113 9.78419 11.3101C10.1278 11.2781 10.4266 11.1031 10.6674 10.8636L11.6145 9.92199C12.2537 9.28632 12.0735 8.19659 11.2555 7.75199L9.98186 7.05959C9.44479 6.76766 8.79052 6.85339 8.37079 7.27079Z" fill="#607E92"/>
</svg>
