<svg width="45" height="45" viewBox="0 0 45 45" fill="none" xmlns="http://www.w3.org/2000/svg">
<rect width="45" height="45" rx="10" fill="#607E92"/>
<path d="M31.7781 13.2039C31.8386 13.1808 31.8985 13.1584 31.9605 13.1397C32.3885 13.0108 34.1582 12.5814 33.9886 14.3555C33.9244 15.1859 33.3462 18.092 32.8965 21.2354L31.4121 30.2006C31.3738 30.4314 31.3482 30.6651 31.2842 30.8902C31.1644 31.3108 30.8527 31.9877 30.0699 32.1483C28.9135 32.3856 27.1791 31.318 26.8578 31.0808C26.6008 30.9029 22.0398 28.2339 20.4337 26.9291C19.984 26.5733 19.4701 25.8615 20.4979 25.0312L27.2433 19.1003C28.0142 18.3886 28.7851 16.7279 25.573 18.7444L16.7332 24.2824C16.6306 24.3467 16.5273 24.4095 16.4144 24.4533C16.0532 24.5936 15.1037 24.8479 13.6242 24.4381L10.6404 23.5905C9.84881 23.3657 8.63009 22.8586 9.15984 22.2289C9.35952 21.9915 9.7725 21.7321 10.5406 21.4726C16.937 18.6971 24.7983 15.8628 31.7781 13.2039Z" fill="white"/>
</svg>
