<svg width="46" height="45" viewBox="0 0 46 45" fill="none" xmlns="http://www.w3.org/2000/svg">
<rect x="0.570312" width="45" height="45" rx="10" fill="#607E92"/>
<path fill-rule="evenodd" clip-rule="evenodd" d="M29.3913 26.1211C29.1503 26.8033 28.1923 27.3677 27.4283 27.5327C26.9053 27.6437 26.2233 27.7316 23.9253 26.7793C21.3443 25.71 17.7603 21.901 17.7603 19.3662C17.7603 18.0758 18.5043 16.5732 19.8053 16.5732C20.4313 16.5732 20.5693 16.5854 20.7753 17.0796C21.0163 17.6618 21.6043 19.0961 21.6743 19.2432C21.9633 19.8463 21.3803 20.1994 20.9573 20.7246C20.8223 20.8826 20.6693 21.0536 20.8403 21.3477C21.0103 21.6357 21.5983 22.5941 22.4623 23.3633C23.5783 24.3576 24.4833 24.675 24.8073 24.8101C25.0483 24.9101 25.3363 24.8868 25.5123 24.6987C25.7353 24.4577 26.0123 24.0577 26.2943 23.6636C26.4933 23.3815 26.7463 23.3463 27.0113 23.4463C27.1903 23.5083 29.4653 24.5648 29.5613 24.7339C29.6323 24.8569 29.6323 25.4389 29.3913 26.1211ZM23.5723 12H23.5673C18.0543 12 13.5703 16.4854 13.5703 22C13.5703 24.1867 14.2753 26.2153 15.4743 27.8608L14.2283 31.5767L18.0713 30.3486C19.6523 31.395 21.5393 32 23.5723 32C29.0853 32 33.5703 27.5147 33.5703 22C33.5703 16.4854 29.0853 12 23.5723 12Z" fill="white"/>
</svg>
